<?xml version="1.0" encoding="UTF-8" standalone="no"?>
<!-- Created with Inkscape (http://www.inkscape.org/) -->

<svg
   xmlns:dc="http://purl.org/dc/elements/1.1/"
   xmlns:cc="http://creativecommons.org/ns#"
   xmlns:rdf="http://www.w3.org/1999/02/22-rdf-syntax-ns#"
   xmlns:svg="http://www.w3.org/2000/svg"
   xmlns="http://www.w3.org/2000/svg"
   version="1.1"
   width="300"
   height="281.8941"
   id="svg2">
  <defs
     id="defs4">
    <clipPath
       id="clipPath3093">
      <path
         d="m 2.4308,0.25 590.138,0 0,840.5 -590.138,0 0,-840.5 z"
         id="path3095" />
    </clipPath>
    <clipPath
       id="clipPath3087">
      <path
         d="m 523.422,158.514 -449.161,0 0,304.855 449.161,0 0,-304.855 z"
         id="path3089" />
    </clipPath>
    <clipPath
       id="clipPath3039">
      <path
         d="m 2.4308,0.25 590.138,0 0,840.5 -590.138,0 0,-840.5 z"
         id="path3041" />
    </clipPath>
    <clipPath
       id="clipPath3011">
      <path
         d="m 73.963,818.217 36.362,0 0,-44.231 -36.362,0 0,44.231 z"
         id="path3013" />
    </clipPath>
    <clipPath
       id="clipPath3011-4">
      <path
         d="m 73.963,818.217 36.362,0 0,-44.231 -36.362,0 0,44.231 z"
         id="path3013-0" />
    </clipPath>
    <clipPath
       id="clipPath3965">
      <path
         d="m 0.0726,827.2834 621.3231,0 0,-827.28 -621.3231,0 0,827.28 z"
         id="path3967" />
    </clipPath>
    <linearGradient
       x1="-22.6514"
       y1="0"
       x2="22.6514"
       y2="0"
       id="linearGradient5438"
       gradientUnits="userSpaceOnUse"
       gradientTransform="matrix(0.996908,0,0,-0.99788,547.7721,807.09082)">
      <stop
         id="stop5440"
         style="stop-color:#a04636;stop-opacity:1"
         offset="0" />
      <stop
         id="stop5442"
         style="stop-color:#fbc707;stop-opacity:1"
         offset="1" />
    </linearGradient>
    <clipPath
       id="clipPath5426">
      <path
         d="m 563.819,805.418 -11.706,7.523 c 2.504,-4.879 -1.267,-10.343 -6.022,-11.67 -1.942,-0.654 -4.986,-0.696 -7.503,1.217 -3.111,2.365 -3.864,6.007 -3.672,9.689 0.157,2.989 0.923,6.435 2.263,10.311 -3.585,-6.99 -5.456,-12.926 -5.384,-17.667 0.077,-5.09 3.062,-9.734 7.808,-11.746 3.258,-1.381 7.2,-1.225 11.98,0.818 5.497,2.733 9.059,6.988 12.236,11.525"
         id="path5428" />
    </clipPath>
    <linearGradient
       x1="-16.098"
       y1="0"
       x2="16.098"
       y2="0"
       id="linearGradient5414"
       gradientUnits="userSpaceOnUse"
       gradientTransform="matrix(-0.996908,0,0,0.99788,554.04694,813.18176)">
      <stop
         id="stop5416"
         style="stop-color:#a04636;stop-opacity:1"
         offset="0" />
      <stop
         id="stop5418"
         style="stop-color:#fbc707;stop-opacity:1"
         offset="1" />
    </linearGradient>
    <clipPath
       id="clipPath5402">
      <path
         d="m 537.999,814.855 11.706,-7.523 c -2.504,4.879 1.267,10.343 6.022,11.669 1.942,0.655 4.986,0.697 7.503,-1.217 3.111,-2.365 3.865,-6.006 3.672,-9.689 -0.157,-2.988 -0.923,-6.434 -2.263,-10.31 3.585,6.989 5.456,12.926 5.384,17.666 -0.077,5.091 -3.062,9.735 -7.808,11.747 -3.258,1.381 -7.2,1.224 -11.98,-0.819 -5.497,-2.733 -9.059,-6.988 -12.236,-11.524"
         id="path5404" />
    </clipPath>
    <clipPath
       id="clipPath5390">
      <path
         d="m 542.466,811.984 7.239,-4.652 c -0.72,1.404 -0.921,2.856 -0.728,4.245 0.531,1.45 1.303,3.097 2.592,4.358 1.548,1.516 4.074,2.38 6.162,1.487 2.489,-1.063 2.771,-4.467 2.383,-6.792 -0.15,-0.9 -0.413,-1.667 -0.763,-2.341 l -7.238,4.651 c 0.72,-1.404 0.92,-2.856 0.727,-4.244 -0.53,-1.451 -1.302,-3.097 -2.591,-4.359 -1.548,-1.515 -4.074,-2.379 -6.163,-1.486 -2.488,1.063 -2.77,4.466 -2.382,6.791 0.15,0.901 0.412,1.668 0.762,2.342 z m -5.291,10.493 0.004,0.011 -0.018,-0.034 c -0.277,-0.464 -0.525,-0.966 -0.748,-1.498 -3.084,-6.328 -4.685,-11.744 -4.618,-16.135 0.077,-5.09 3.062,-9.734 7.807,-11.746 3.259,-1.381 7.201,-1.225 11.981,0.818 3.527,1.754 6.258,4.135 8.602,6.815 l 4.453,-2.923 0.005,0.01 -0.004,-0.011 0.018,0.034 c 0.277,0.465 0.525,0.967 0.748,1.499 3.085,6.328 4.685,11.744 4.618,16.135 -0.077,5.09 -3.062,9.734 -7.807,11.745 -3.259,1.382 -7.201,1.225 -11.981,-0.818 -3.521,-1.75 -6.248,-4.125 -8.588,-6.799 l -0.014,-0.015 -4.452,2.922 -0.006,-0.01"
         id="path5392" />
    </clipPath>
    <linearGradient
       x1="-19.1747"
       y1="0"
       x2="19.1747"
       y2="0"
       id="linearGradient5378"
       gradientUnits="userSpaceOnUse"
       gradientTransform="matrix(-0.996908,0,0,0.99788,550.90912,810.13648)">
      <stop
         id="stop5380"
         style="stop-color:#a04636;stop-opacity:1"
         offset="0" />
      <stop
         id="stop5382"
         style="stop-color:#fbc707;stop-opacity:1"
         offset="1" />
    </linearGradient>
    <clipPath
       id="clipPath5358">
      <path
         d="m 0,846.015 594,0 0,-82.915 -594,0 0,82.915 z"
         id="path5360" />
    </clipPath>
    <linearGradient
       x1="-19.1747"
       y1="0"
       x2="19.1747"
       y2="0"
       id="linearGradient5378-3"
       gradientUnits="userSpaceOnUse"
       gradientTransform="matrix(-0.996908,0,0,0.99788,550.90912,810.13648)">
      <stop
         id="stop5380-0"
         style="stop-color:#a04636;stop-opacity:1"
         offset="0" />
      <stop
         id="stop5382-8"
         style="stop-color:#fbc707;stop-opacity:1"
         offset="1" />
    </linearGradient>
    <clipPath
       id="clipPath5390-9">
      <path
         d="m 542.466,811.984 7.239,-4.652 c -0.72,1.404 -0.921,2.856 -0.728,4.245 0.531,1.45 1.303,3.097 2.592,4.358 1.548,1.516 4.074,2.38 6.162,1.487 2.489,-1.063 2.771,-4.467 2.383,-6.792 -0.15,-0.9 -0.413,-1.667 -0.763,-2.341 l -7.238,4.651 c 0.72,-1.404 0.92,-2.856 0.727,-4.244 -0.53,-1.451 -1.302,-3.097 -2.591,-4.359 -1.548,-1.515 -4.074,-2.379 -6.163,-1.486 -2.488,1.063 -2.77,4.466 -2.382,6.791 0.15,0.901 0.412,1.668 0.762,2.342 z m -5.291,10.493 0.004,0.011 -0.018,-0.034 c -0.277,-0.464 -0.525,-0.966 -0.748,-1.498 -3.084,-6.328 -4.685,-11.744 -4.618,-16.135 0.077,-5.09 3.062,-9.734 7.807,-11.746 3.259,-1.381 7.201,-1.225 11.981,0.818 3.527,1.754 6.258,4.135 8.602,6.815 l 4.453,-2.923 0.005,0.01 -0.004,-0.011 0.018,0.034 c 0.277,0.465 0.525,0.967 0.748,1.499 3.085,6.328 4.685,11.744 4.618,16.135 -0.077,5.09 -3.062,9.734 -7.807,11.745 -3.259,1.382 -7.201,1.225 -11.981,-0.818 -3.521,-1.75 -6.248,-4.125 -8.588,-6.799 l -0.014,-0.015 -4.452,2.922 -0.006,-0.01"
         id="path5392-1" />
    </clipPath>
    <clipPath
       id="clipPath5402-3">
      <path
         d="m 537.999,814.855 11.706,-7.523 c -2.504,4.879 1.267,10.343 6.022,11.669 1.942,0.655 4.986,0.697 7.503,-1.217 3.111,-2.365 3.865,-6.006 3.672,-9.689 -0.157,-2.988 -0.923,-6.434 -2.263,-10.31 3.585,6.989 5.456,12.926 5.384,17.666 -0.077,5.091 -3.062,9.735 -7.808,11.747 -3.258,1.381 -7.2,1.224 -11.98,-0.819 -5.497,-2.733 -9.059,-6.988 -12.236,-11.524"
         id="path5404-4" />
    </clipPath>
    <linearGradient
       x1="-16.098"
       y1="0"
       x2="16.098"
       y2="0"
       id="linearGradient5414-7"
       gradientUnits="userSpaceOnUse"
       gradientTransform="matrix(-0.996908,0,0,0.99788,554.04694,813.18176)">
      <stop
         id="stop5416-4"
         style="stop-color:#a04636;stop-opacity:1"
         offset="0" />
      <stop
         id="stop5418-6"
         style="stop-color:#fbc707;stop-opacity:1"
         offset="1" />
    </linearGradient>
    <clipPath
       id="clipPath5426-3">
      <path
         d="m 563.819,805.418 -11.706,7.523 c 2.504,-4.879 -1.267,-10.343 -6.022,-11.67 -1.942,-0.654 -4.986,-0.696 -7.503,1.217 -3.111,2.365 -3.864,6.007 -3.672,9.689 0.157,2.989 0.923,6.435 2.263,10.311 -3.585,-6.99 -5.456,-12.926 -5.384,-17.667 0.077,-5.09 3.062,-9.734 7.808,-11.746 3.258,-1.381 7.2,-1.225 11.98,0.818 5.497,2.733 9.059,6.988 12.236,11.525"
         id="path5428-6" />
    </clipPath>
    <linearGradient
       x1="-22.6514"
       y1="0"
       x2="22.6514"
       y2="0"
       id="linearGradient5438-5"
       gradientUnits="userSpaceOnUse"
       gradientTransform="matrix(0.996908,0,0,-0.99788,547.7721,807.09082)">
      <stop
         id="stop5440-2"
         style="stop-color:#a04636;stop-opacity:1"
         offset="0" />
      <stop
         id="stop5442-8"
         style="stop-color:#fbc707;stop-opacity:1"
         offset="1" />
    </linearGradient>
  </defs>
  <metadata
     id="metadata7">
    <rdf:RDF>
      <cc:Work
         rdf:about="">
        <dc:format>image/svg+xml</dc:format>
        <dc:type
           rdf:resource="http://purl.org/dc/dcmitype/StillImage" />
        <dc:title></dc:title>
      </cc:Work>
    </rdf:RDF>
  </metadata>
  <g
     transform="translate(-246.4226,124.50863)"
     id="layer1">
    <g
       transform="matrix(6.2774572,0,0,6.2774572,-3314.7984,303.69601)"
       id="g5978">
      <g
         transform="matrix(1.25,0,0,-1.25,-97.438114,966.91008)"
         id="g5368">
        <g
           id="g5370">
          <g
             id="g5376">
            <path
               d="m 542.466,811.984 7.239,-4.652 c -0.72,1.404 -0.921,2.856 -0.728,4.245 0.531,1.45 1.303,3.097 2.592,4.358 1.548,1.516 4.074,2.38 6.162,1.487 2.489,-1.063 2.771,-4.467 2.383,-6.792 -0.15,-0.9 -0.413,-1.667 -0.763,-2.341 l -7.238,4.651 c 0.72,-1.404 0.92,-2.856 0.727,-4.244 -0.53,-1.451 -1.302,-3.097 -2.591,-4.359 -1.548,-1.515 -4.074,-2.379 -6.163,-1.486 -2.488,1.063 -2.77,4.466 -2.382,6.791 0.15,0.901 0.412,1.668 0.762,2.342 z m -5.291,10.493 0.004,0.011 -0.018,-0.034 c -0.277,-0.464 -0.525,-0.966 -0.748,-1.498 -3.084,-6.328 -4.685,-11.744 -4.618,-16.135 0.077,-5.09 3.062,-9.734 7.807,-11.746 3.259,-1.381 7.201,-1.225 11.981,0.818 3.527,1.754 6.258,4.135 8.602,6.815 l 4.453,-2.923 0.005,0.01 -0.004,-0.011 0.018,0.034 c 0.277,0.465 0.525,0.967 0.748,1.499 3.085,6.328 4.685,11.744 4.618,16.135 -0.077,5.09 -3.062,9.734 -7.807,11.745 -3.259,1.382 -7.201,1.225 -11.981,-0.818 -3.521,-1.75 -6.248,-4.125 -8.588,-6.799 l -0.014,-0.015 -4.452,2.922 -0.006,-0.01"
               id="path5384"
               style="fill:url(#linearGradient5378-3);fill-rule:evenodd;stroke:none" />
          </g>
        </g>
      </g>
      <g
         transform="matrix(1.25,0,0,-1.25,-97.438114,966.91008)"
         id="g5386">
        <g
           clip-path="url(#clipPath5390-9)"
           id="g5388">
          <path
             d="m 564.638,797.785 -9.625,6.317 c 2.432,1.668 4.543,3.178 5.101,6.528 0.388,2.325 0.106,5.729 -2.383,6.792 -2.088,0.893 -4.614,0.029 -6.162,-1.486 -2.317,-2.268 -2.962,-5.777 -3.544,-7.164 0.309,5.633 3.582,9.382 6.325,10.551 2.945,1.256 7.87,0.384 10.238,-1.836 1.625,-1.524 2.59,-4.992 2.636,-8.266 -0.168,-3.863 -0.79,-8.447 -2.586,-11.436"
             id="path5394"
             style="fill:#63363c;fill-opacity:1;fill-rule:evenodd;stroke:none" />
          <path
             d="m 537.18,822.487 4.453,-2.922 c -1.309,-1.496 -2.496,-3.085 -3.634,-4.71 l 4.467,-2.871 c -0.35,-0.674 -0.612,-1.441 -0.762,-2.342 -0.388,-2.325 -0.106,-5.728 2.382,-6.792 2.089,-0.892 4.615,-0.028 6.163,1.487 2.317,2.268 2.962,5.776 3.544,7.163 -0.309,-5.632 -3.581,-9.382 -6.325,-10.551 -2.945,-1.255 -7.87,-0.383 -10.238,1.836 -1.626,1.524 -2.59,4.992 -2.636,8.266 0.168,3.863 0.79,8.448 2.586,11.436"
             id="path5396"
             style="fill:#63363c;fill-opacity:1;fill-rule:evenodd;stroke:none" />
        </g>
      </g>
      <g
         transform="matrix(1.25,0,0,-1.25,-97.438114,966.91008)"
         id="g5398">
        <g
           clip-path="url(#clipPath5402-3)"
           id="g5400">
          <g
             id="g5406">
            <g
               id="g5412">
              <path
                 d="m 542.466,811.984 7.239,-4.652 c -0.72,1.404 -0.921,2.856 -0.728,4.245 0.531,1.45 1.303,3.097 2.592,4.358 1.548,1.516 4.074,2.38 6.162,1.487 2.489,-1.063 2.771,-4.467 2.383,-6.792 -0.15,-0.9 -0.413,-1.667 -0.763,-2.341 l -7.238,4.651 c 0.72,-1.404 0.92,-2.856 0.727,-4.244 -0.53,-1.451 -1.302,-3.097 -2.591,-4.359 -1.548,-1.515 -4.074,-2.379 -6.163,-1.486 -2.488,1.063 -2.77,4.466 -2.382,6.791 0.15,0.901 0.412,1.668 0.762,2.342 z m -5.291,10.493 0.004,0.011 -0.018,-0.034 c -0.277,-0.464 -0.525,-0.966 -0.748,-1.498 -3.084,-6.328 -4.685,-11.744 -4.618,-16.135 0.077,-5.09 3.062,-9.734 7.807,-11.746 3.259,-1.381 7.201,-1.225 11.981,0.818 3.527,1.754 6.258,4.135 8.602,6.815 l 4.453,-2.923 0.005,0.01 -0.004,-0.011 0.018,0.034 c 0.277,0.465 0.525,0.967 0.748,1.499 3.085,6.328 4.685,11.744 4.618,16.135 -0.077,5.09 -3.062,9.734 -7.807,11.745 -3.259,1.382 -7.201,1.225 -11.981,-0.818 -3.521,-1.75 -6.248,-4.125 -8.588,-6.799 l -0.014,-0.015 -4.452,2.922 -0.006,-0.01"
                 id="path5420"
                 style="fill:url(#linearGradient5414-7);fill-rule:evenodd;stroke:none" />
            </g>
          </g>
        </g>
      </g>
      <g
         transform="matrix(1.25,0,0,-1.25,-97.438114,966.91008)"
         id="g5422">
        <g
           clip-path="url(#clipPath5426-3)"
           id="g5424">
          <g
             id="g5430">
            <g
               id="g5436">
              <path
                 d="m 542.466,811.984 7.239,-4.652 c -0.72,1.404 -0.921,2.856 -0.728,4.245 0.531,1.45 1.303,3.097 2.592,4.358 1.548,1.516 4.074,2.38 6.162,1.487 2.489,-1.063 2.771,-4.467 2.383,-6.792 -0.15,-0.9 -0.413,-1.667 -0.763,-2.341 l -7.238,4.651 c 0.72,-1.404 0.92,-2.856 0.727,-4.244 -0.53,-1.451 -1.302,-3.097 -2.591,-4.359 -1.548,-1.515 -4.074,-2.379 -6.163,-1.486 -2.488,1.063 -2.77,4.466 -2.382,6.791 0.15,0.901 0.412,1.668 0.762,2.342 z m -5.291,10.493 0.004,0.011 -0.018,-0.034 c -0.277,-0.464 -0.525,-0.966 -0.748,-1.498 -3.084,-6.328 -4.685,-11.744 -4.618,-16.135 0.077,-5.09 3.062,-9.734 7.807,-11.746 3.259,-1.381 7.201,-1.225 11.981,0.818 3.527,1.754 6.258,4.135 8.602,6.815 l 4.453,-2.923 0.005,0.01 -0.004,-0.011 0.018,0.034 c 0.277,0.465 0.525,0.967 0.748,1.499 3.085,6.328 4.685,11.744 4.618,16.135 -0.077,5.09 -3.062,9.734 -7.807,11.745 -3.259,1.382 -7.201,1.225 -11.981,-0.818 -3.521,-1.75 -6.248,-4.125 -8.588,-6.799 l -0.014,-0.015 -4.452,2.922 -0.006,-0.01"
                 id="path5444"
                 style="fill:url(#linearGradient5438-5);fill-rule:evenodd;stroke:none" />
            </g>
          </g>
        </g>
      </g>
    </g>
  </g>
</svg>
